<?xml version="1.0" encoding="UTF-8" standalone="no"?>
<!-- Created with Inkscape (http://www.inkscape.org/) -->

<svg
   xmlns:dc="http://purl.org/dc/elements/1.1/"
   xmlns:cc="http://creativecommons.org/ns#"
   xmlns:rdf="http://www.w3.org/1999/02/22-rdf-syntax-ns#"
   xmlns:svg="http://www.w3.org/2000/svg"
   xmlns="http://www.w3.org/2000/svg"
   xmlns:sodipodi="http://sodipodi.sourceforge.net/DTD/sodipodi-0.dtd"
   xmlns:inkscape="http://www.inkscape.org/namespaces/inkscape"
   width="210mm"
   height="297mm"
   id="svg2"
   sodipodi:version="0.32"
   inkscape:version="0.47 r22583"
   sodipodi:docname="cctv.svg"
   inkscape:output_extension="org.inkscape.output.svg.inkscape"
   version="1.1">
  <defs
     id="defs4">
    <inkscape:perspective
       sodipodi:type="inkscape:persp3d"
       inkscape:vp_x="0 : 526.18109 : 1"
       inkscape:vp_y="0 : 1000 : 0"
       inkscape:vp_z="744.09448 : 526.18109 : 1"
       inkscape:persp3d-origin="372.04724 : 350.78739 : 1"
       id="perspective10" />
    <inkscape:perspective
       id="perspective2484"
       inkscape:persp3d-origin="372.04724 : 350.78739 : 1"
       inkscape:vp_z="744.09448 : 526.18109 : 1"
       inkscape:vp_y="0 : 1000 : 0"
       inkscape:vp_x="0 : 526.18109 : 1"
       sodipodi:type="inkscape:persp3d" />
    <inkscape:perspective
       id="perspective3727"
       inkscape:persp3d-origin="0.5 : 0.33333333 : 1"
       inkscape:vp_z="1 : 0.5 : 1"
       inkscape:vp_y="0 : 1000 : 0"
       inkscape:vp_x="0 : 0.5 : 1"
       sodipodi:type="inkscape:persp3d" />
    <inkscape:perspective
       id="perspective3749"
       inkscape:persp3d-origin="0.5 : 0.33333333 : 1"
       inkscape:vp_z="1 : 0.5 : 1"
       inkscape:vp_y="0 : 1000 : 0"
       inkscape:vp_x="0 : 0.5 : 1"
       sodipodi:type="inkscape:persp3d" />
  </defs>
  <sodipodi:namedview
     id="base"
     pagecolor="#ffffff"
     bordercolor="#666666"
     borderopacity="1.0"
     inkscape:pageopacity="0.0"
     inkscape:pageshadow="2"
     inkscape:zoom="2.2202806"
     inkscape:cx="294.7021"
     inkscape:cy="691.05306"
     inkscape:document-units="px"
     inkscape:current-layer="layer1"
     showgrid="false"
     inkscape:window-width="1166"
     inkscape:window-height="847"
     inkscape:window-x="0"
     inkscape:window-y="24"
     inkscape:window-maximized="0" />
  <metadata
     id="metadata7">
    <rdf:RDF>
      <cc:Work
         rdf:about="">
        <dc:format>image/svg+xml</dc:format>
        <dc:type
           rdf:resource="http://purl.org/dc/dcmitype/StillImage" />
        <dc:title></dc:title>
      </cc:Work>
    </rdf:RDF>
  </metadata>
  <g
     inkscape:label="Ebene 1"
     inkscape:groupmode="layer"
     id="layer1">
    <g
       style="fill:#e2ae00;fill-opacity:0.98823529;stroke:none"
       id="g2819"
       inkscape:export-filename="/home/niels/Projekte/openstreetmap/icons/cctv1.png"
       inkscape:export-xdpi="16"
       inkscape:export-ydpi="16"
       transform="matrix(1,0,0,1.1103061,0,-47.107194)">
      <path
         style="fill:#00e2b7;fill-opacity:0.98823529;fill-rule:evenodd;stroke:none"
         d="m 246.4375,296.40625 c -10.26115,0.51679 -18.34375,8.94976 -18.34375,19.34375 l 0,41.25 -48.77798,63.97408 73.93423,-35.34908 88.34375,0 c 10.72927,0 19.34375,-8.61448 19.34375,-19.34375 l 0,-50.53125 c 0,-10.72928 -8.61448,-19.34375 -19.34375,-19.34375 l -94.15625,0 c -0.33529,0 -0.669,-0.0167 -1,0 z"
         id="rect2492"
         sodipodi:nodetypes="ccccccccccc"
         inkscape:export-filename="/home/niels/Projekte/openstreetmap/icons/cctv1.png"
         inkscape:export-xdpi="16.922892"
         inkscape:export-ydpi="16.922892" />
    </g>
    <path
       style="fill:#000000"
       d="m 344.42132,375.87958 c 0.0418,-8.89856 1.05929,-7.45225 -5.182,-7.6705 -2.89588,-0.10095 -3.54841,0.10164 -4.27537,0.66746 -2.65278,2.06475 -7.02154,1.12824 -8.28892,-1.77685 -0.40678,-0.93242 -1.20797,-1.51501 -4.91427,-3.57336 -2.43554,-1.35262 -4.59525,-2.4593 -4.79935,-2.4593 -0.2041,0 -0.62975,0.26782 -0.9459,0.59516 -0.31615,0.32735 -1.75129,1.81973 -3.18919,3.31642 -4.1218,4.29029 -3.90084,4.12852 -4.64004,3.3973 -0.71052,-0.70286 -0.56508,-0.80399 -4.03757,2.8074 -0.97439,1.01338 -2.00415,1.78459 -2.3841,1.78551 -0.41885,0.001 -2.21365,-1.52381 -4.80182,-4.07954 -2.27314,-2.24465 -4.28764,-4.08118 -4.47666,-4.08118 -0.18903,0 -1.00867,0.73796 -1.82142,1.63991 -1.02692,1.13964 -1.4166,1.81402 -1.27736,2.21064 0.27174,0.77405 -1.01783,0.77409 -2.02881,7e-5 -2.00968,-1.53865 -3.18443,-3.84788 -1.96001,-3.85282 0.7479,-0.003 3.50033,-2.63696 3.50033,-3.34966 0,-0.31798 -0.28003,-0.84023 -0.62228,-1.16056 -0.34226,-0.32031 -0.62228,-0.87225 -0.62228,-1.22652 0,-0.55613 4.56611,-5.51337 11.66575,-12.66503 0.85673,-0.86301 2.73286,-2.78448 4.16916,-4.26995 l 2.61147,-2.70082 -0.84973,-1.40354 c -0.56168,-0.92775 -0.76137,-1.57002 -0.58905,-1.89466 0.51301,-0.96653 12.40465,-12.80521 12.86184,-12.80457 0.25669,3.7e-4 0.80586,0.28563 1.22038,0.63393 0.75158,0.63151 0.75231,0.6385 0.26294,2.51887 l -0.49074,1.88561 2.6929,2.68828 c 1.48109,1.47856 4.47759,4.4356 6.65888,6.5712 2.1813,2.13559 3.96646,4.10041 3.96704,4.36626 5.6e-4,0.26586 -0.23067,0.76325 -0.51389,1.10532 -0.48037,0.58023 -0.47545,0.66964 0.0734,1.33255 0.58635,0.7082 0.57114,0.72855 -4.54109,6.07597 l -5.12941,5.36538 3.48023,1.90816 c 3.43627,1.88406 3.4941,1.90181 4.57932,1.40618 1.95803,-0.89426 4.38555,-0.38478 5.86338,1.23058 0.87437,0.95576 1.00378,0.98824 3.93732,0.98824 2.78195,0 3.09016,-0.0662 3.72048,-0.79964 0.6697,-0.77921 0.68641,-0.99805 0.65408,-8.56937 l -0.0332,-7.76975 3.05606,-0.0939 c 1.68083,-0.0517 3.22162,0.0194 3.42397,0.15782 0.2748,0.18805 0.31305,16.20249 0.38684,31.69368 0,0 -4.80594,0.0865 -6.37131,-0.14635 z"
       id="path2490"
       sodipodi:nodetypes="csssssssssssssssssssscccssscccsssscccsssscccscc"
       inkscape:export-filename="/home/niels/Projekte/openstreetmap/icons/cctv1.png"
       inkscape:export-xdpi="16.922892"
       inkscape:export-ydpi="16.922892" />
    <path
       style="fill:#000000"
       d="m 237.80597,337.20789 c -0.0418,-8.89856 -1.05929,-7.45225 5.182,-7.6705 2.89588,-0.10095 3.54841,0.10164 4.27537,0.66746 2.65278,2.06475 7.02154,1.12824 8.28892,-1.77685 0.40678,-0.93242 1.20797,-1.51501 4.91427,-3.57336 2.43554,-1.35262 4.59525,-2.4593 4.79935,-2.4593 0.2041,0 0.62975,0.26782 0.9459,0.59516 0.31615,0.32735 1.75129,1.81973 3.18919,3.31642 4.1218,4.29029 3.90084,4.12852 4.64004,3.3973 0.71052,-0.70286 0.56508,-0.80399 4.03757,2.8074 0.97439,1.01338 2.00415,1.78459 2.3841,1.78551 0.41885,0.001 2.21365,-1.52381 4.80182,-4.07954 2.27314,-2.24465 4.28764,-4.08118 4.47666,-4.08118 0.18903,0 1.00867,0.73796 1.82142,1.63991 1.02692,1.13964 1.4166,1.81402 1.27736,2.21064 -0.27174,0.77405 1.01783,0.77409 2.02881,7e-5 2.00968,-1.53865 3.18443,-3.84788 1.96001,-3.85282 -0.7479,-0.003 -3.50033,-2.63696 -3.50033,-3.34966 0,-0.31798 0.28003,-0.84023 0.62228,-1.16056 0.34226,-0.32031 0.62228,-0.87225 0.62228,-1.22652 0,-0.55613 -4.56611,-5.51337 -11.66575,-12.66503 -0.85673,-0.86301 -2.73286,-2.78448 -4.16916,-4.26995 l -2.61147,-2.70082 0.84973,-1.40354 c 0.56168,-0.92775 0.76137,-1.57002 0.58905,-1.89466 -0.51301,-0.96653 -12.40465,-12.80521 -12.86184,-12.80457 -0.25669,3.7e-4 -0.80586,0.28563 -1.22038,0.63393 -0.75158,0.63151 -0.75231,0.6385 -0.26294,2.51887 l 0.49074,1.88561 -2.6929,2.68828 c -1.48109,1.47856 -4.47759,4.4356 -6.65888,6.5712 -2.1813,2.13559 -3.96646,4.10041 -3.96704,4.36626 -5.6e-4,0.26586 0.23067,0.76325 0.51389,1.10532 0.48037,0.58023 0.47545,0.66964 -0.0734,1.33255 -0.58635,0.7082 -0.57114,0.72855 4.54109,6.07597 l 5.12941,5.36538 -3.48023,1.90816 c -3.43627,1.88406 -3.4941,1.90181 -4.57932,1.40618 -1.95803,-0.89426 -4.38555,-0.38478 -5.86338,1.23058 -0.87437,0.95576 -1.00378,0.98824 -3.93732,0.98824 -2.78195,0 -3.09016,-0.0662 -3.72048,-0.79964 -0.6697,-0.77921 -0.68641,-0.99805 -0.65408,-8.56937 l 0.0332,-7.76975 -3.05606,-0.0939 c -1.68083,-0.0517 -3.22162,0.0194 -3.42397,0.15782 -0.2748,0.18805 -0.31305,16.20249 -0.38684,31.69368 0,0 4.80594,0.0865 6.37131,-0.14635 z"
       id="path2490-5"
       sodipodi:nodetypes="csssssssssssssssssssscccssscccsssscccsssscccscc"
       inkscape:export-filename="/home/niels/Projekte/openstreetmap/icons/cctv1.png"
       inkscape:export-xdpi="16.922892"
       inkscape:export-ydpi="16.922892" />
  </g>
</svg>
