<?xml version="1.0" encoding="UTF-8" standalone="no"?>
<!-- Created with Inkscape (http://www.inkscape.org/) -->
<svg
   xmlns:dc="http://purl.org/dc/elements/1.1/"
   xmlns:cc="http://creativecommons.org/ns#"
   xmlns:rdf="http://www.w3.org/1999/02/22-rdf-syntax-ns#"
   xmlns:svg="http://www.w3.org/2000/svg"
   xmlns="http://www.w3.org/2000/svg"
   xmlns:sodipodi="http://sodipodi.sourceforge.net/DTD/sodipodi-0.dtd"
   xmlns:inkscape="http://www.inkscape.org/namespaces/inkscape"
   width="744.09448"
   height="1052.3622"
   id="svg2"
   sodipodi:version="0.32"
   inkscape:version="0.46"
   sodipodi:docname="RFID_1_path.svg"
   inkscape:output_extension="org.inkscape.output.svg.inkscape"
   version="1.0">
  <defs
     id="defs4">
    <inkscape:perspective
       sodipodi:type="inkscape:persp3d"
       inkscape:vp_x="0 : 526.18109 : 1"
       inkscape:vp_y="0 : 1000 : 0"
       inkscape:vp_z="744.09448 : 526.18109 : 1"
       inkscape:persp3d-origin="372.04724 : 350.78739 : 1"
       id="perspective10" />
    <inkscape:perspective
       id="perspective3905"
       inkscape:persp3d-origin="311.96411 : 182.72443 : 1"
       inkscape:vp_z="623.92822 : 274.08664 : 1"
       inkscape:vp_y="0 : 1000 : 0"
       inkscape:vp_x="0 : 274.08664 : 1"
       sodipodi:type="inkscape:persp3d" />
    <inkscape:perspective
       id="perspective2664"
       inkscape:persp3d-origin="200 : 266.66667 : 1"
       inkscape:vp_z="400 : 400 : 1"
       inkscape:vp_y="0 : 1000 : 0"
       inkscape:vp_x="0 : 400 : 1"
       sodipodi:type="inkscape:persp3d" />
  </defs>
  <sodipodi:namedview
     id="base"
     pagecolor="#ffffff"
     bordercolor="#666666"
     borderopacity="1.0"
     inkscape:pageopacity="0.0"
     inkscape:pageshadow="2"
     inkscape:zoom="0.58282221"
     inkscape:cx="424.40495"
     inkscape:cy="537.1361"
     inkscape:document-units="mm"
     inkscape:current-layer="layer1"
     showgrid="false"
     units="mm"
     inkscape:window-width="744"
     inkscape:window-height="946"
     inkscape:window-x="299"
     inkscape:window-y="0"
     gridtolerance="11"
     showguides="false"
     guidetolerance="30">
    <inkscape:grid
       type="xygrid"
       id="grid2383"
       units="mm"
       visible="true"
       enabled="true" />
  </sodipodi:namedview>
  <metadata
     id="metadata7">
    <rdf:RDF>
      <cc:Work
         rdf:about="">
        <dc:format>image/svg+xml</dc:format>
        <dc:type
           rdf:resource="http://purl.org/dc/dcmitype/StillImage" />
      </cc:Work>
    </rdf:RDF>
  </metadata>
  <g
     inkscape:label="Ebene 1"
     inkscape:groupmode="layer"
     id="layer1">
    <g
       id="g3544"
       transform="translate(-9.77329,0)">
      <g
         transform="matrix(2.6939167,0,0,2.6939167,-1050.096,-1626.4112)"
         id="g3416">
        <rect
           style="opacity:1;fill:#ffffff;fill-opacity:1;fill-rule:nonzero;stroke:#000000;stroke-width:0.13152994;stroke-linecap:round;stroke-linejoin:round;marker:none;marker-start:none;marker-mid:none;marker-end:none;stroke-miterlimit:4;stroke-dasharray:none;stroke-dashoffset:0;stroke-opacity:1;visibility:visible;display:inline;overflow:visible"
           id="rect3114"
           width="248.03149"
           height="248.03149"
           x="407.5213"
           y="620.19128" />
        <rect
           style="opacity:1;fill:#ffab01;fill-opacity:1;fill-rule:nonzero;stroke:none;stroke-width:3.54330707;stroke-linecap:round;stroke-linejoin:round;marker:none;marker-start:none;marker-mid:none;marker-end:none;stroke-miterlimit:4;stroke-dasharray:none;stroke-dashoffset:0;stroke-opacity:1;visibility:visible;display:inline;overflow:visible"
           id="rect3414"
           width="235.62993"
           height="235.62993"
           x="413.72208"
           y="626.39209" />
      </g>
      <g
         transform="matrix(0.4405798,0,0,0.4405798,293.42688,107.23376)"
         id="g3420">
        <circle
           sodipodi:ry="56"
           sodipodi:rx="56"
           sodipodi:cy="105"
           sodipodi:cx="188"
           r="56"
           cx="188"
           cy="105"
           style="fill:#000000;stroke:none"
           id="circle3422" />
        <path
           style="fill:#000000;stroke:none"
           d="M 22,427 C 173.66667,190.33333 159.33333,183.66667 216,182 C 249,183 250,192 306,236 C 375,286.66667 370,287.33333 369,343 C 368.66667,410 373.33333,405 320,430 L 320,317 L 273,275 L 273,434 L 161,433 L 160,307 C 68,449 74,441 22,427 z"
           id="path3424" />
        <path
           style="fill:#000000;stroke:none"
           d="M 163,450 L 272,450 C 272,475 280,473 338,582 C 399,694.33333 400,686.66667 365,751 L 214,480 C 71,756.66667 89,748.33333 10,743 L 89,595 C 156.66667,472.66667 160.33333,472.33333 163,450 z"
           id="path3426" />
      </g>
      <g
         transform="matrix(2.6939167,0,0,2.6939167,-1964.009,-2192.5689)"
         id="g3428">
        <g
           id="g3430"
           transform="matrix(1.8617025,1.0748544,-1.0748544,1.8617025,711.6811,-646.94144)">
          <path
             id="path3432"
             d="M 441.99967,577.8407 C 447.09906,580.78282 450.00003,585.80404 450.00002,591.68829"
             style="fill:none;fill-opacity:1;fill-rule:nonzero;stroke:#000000;stroke-width:1.22370005;stroke-linecap:butt;stroke-linejoin:miter;marker:none;marker-start:none;marker-mid:none;marker-end:none;stroke-miterlimit:4;stroke-dasharray:none;stroke-dashoffset:0;stroke-opacity:1;visibility:visible;display:inline;overflow:visible" />
          <path
             id="path3434"
             d="M 452.59237,559.21353 C 464.49092,566.10592 471.25987,577.86891 471.25983,591.65373"
             style="fill:none;fill-opacity:1;fill-rule:nonzero;stroke:#000000;stroke-width:1.22370005;stroke-linecap:butt;stroke-linejoin:miter;marker:none;marker-start:none;marker-mid:none;marker-end:none;stroke-miterlimit:4;stroke-dasharray:none;stroke-dashoffset:0;stroke-opacity:1;visibility:visible;display:inline;overflow:visible" />
          <path
             id="path3436"
             d="M 447.29601,568.58837 C 455.79497,573.50563 460.62995,581.89773 460.62992,591.73226"
             style="fill:none;fill-opacity:1;fill-rule:nonzero;stroke:#000000;stroke-width:1.22370005;stroke-linecap:butt;stroke-linejoin:miter;marker:none;marker-start:none;marker-mid:none;marker-end:none;stroke-miterlimit:4;stroke-dasharray:none;stroke-dashoffset:0;stroke-opacity:1;visibility:visible;display:inline;overflow:visible" />
        </g>
        <g
           id="g3438"
           transform="matrix(1.8617025,-1.0748544,1.0748544,1.8617025,-540.17697,259.34466)">
          <path
             id="path3440"
             d="M 393.3071,591.76683 C 393.30708,585.88257 396.20806,580.86137 401.30742,577.91925"
             style="fill:none;fill-opacity:1;fill-rule:nonzero;stroke:#000000;stroke-width:1.22370005;stroke-linecap:butt;stroke-linejoin:miter;marker:none;marker-start:none;marker-mid:none;marker-end:none;stroke-miterlimit:4;stroke-dasharray:none;stroke-dashoffset:0;stroke-opacity:1;visibility:visible;display:inline;overflow:visible" />
          <path
             id="path3442"
             d="M 372.04724,591.73226 C 372.0472,577.94743 378.8161,566.18446 390.71466,559.29205"
             style="fill:none;fill-opacity:1;fill-rule:nonzero;stroke:#000000;stroke-width:1.22370005;stroke-linecap:butt;stroke-linejoin:miter;marker:none;marker-start:none;marker-mid:none;marker-end:none;stroke-miterlimit:4;stroke-dasharray:none;stroke-dashoffset:0;stroke-opacity:1;visibility:visible;display:inline;overflow:visible" />
          <path
             id="path3444"
             d="M 382.67717,591.81081 C 382.67714,581.97627 387.51208,573.58417 396.01104,568.66692"
             style="fill:none;fill-opacity:1;fill-rule:nonzero;stroke:#000000;stroke-width:1.22370005;stroke-linecap:butt;stroke-linejoin:miter;marker:none;marker-start:none;marker-mid:none;marker-end:none;stroke-miterlimit:4;stroke-dasharray:none;stroke-dashoffset:0;stroke-opacity:1;visibility:visible;display:inline;overflow:visible" />
        </g>
      </g>
      <path
         style="font-size:214.66358948px;font-style:normal;font-variant:normal;font-weight:normal;font-stretch:normal;text-align:start;line-height:100%;writing-mode:lr-tb;text-anchor:start;fill:#000000;fill-opacity:1;stroke:none;stroke-width:1pt;stroke-linecap:butt;stroke-linejoin:miter;stroke-opacity:1;font-family:Fette-Mittelschrift;-inkscape-font-specification:Fette-Mittelschrift"
         d="M 211.75323,576.91853 L 211.75323,638.52698 L 189.85754,638.52698 L 189.85754,495.34636 L 247.81671,495.34636 C 259.69468,495.34651 269.5692,499.282 277.44029,507.15286 C 285.45428,514.88087 289.46133,524.61228 289.46145,536.34711 C 289.46133,545.07686 287.02848,552.80474 282.16289,559.53078 C 277.44019,566.25697 270.71407,571.26579 261.98451,574.55723 L 294.82804,638.52698 L 269.28307,638.52698 L 239.6595,576.91853 L 211.75323,576.91853 M 211.75323,557.5988 L 245.88474,557.5988 C 252.7539,557.59889 258.33515,555.59536 262.6285,551.58822 C 266.92168,547.58126 269.06831,542.35779 269.06841,535.91778 C 269.06831,529.7642 266.92168,524.61228 262.6285,520.462 C 258.47825,516.31196 253.25478,514.23688 246.95806,514.23676 L 211.75323,514.23676 L 211.75323,557.5988 M 334.17856,576.70386 L 334.17856,638.52698 L 312.28287,638.52698 L 312.28287,495.34636 L 404.15889,495.34636 L 404.15889,515.7394 L 334.17856,515.7394 L 334.17856,557.5988 L 394.0697,557.5988 L 394.0697,576.70386 L 334.17856,576.70386 M 443.39202,495.34636 L 443.39202,638.52698 L 421.711,638.52698 L 421.711,495.34636 L 443.39202,495.34636 M 471.60351,638.52698 L 471.60351,495.34636 L 523.12278,495.34636 C 537.14738,495.34651 549.09698,500.28376 558.9716,510.15815 C 568.84601,520.03279 573.78327,532.05394 573.78338,546.22163 L 573.78338,588.51036 C 573.78327,601.96265 568.41668,613.91224 557.68361,624.35918 C 548.09522,633.80438 536.21718,638.52698 522.04946,638.52698 L 471.60351,638.52698 M 493.28454,617.91927 L 522.90811,617.91927 C 530.92215,617.91929 537.71982,615.05712 543.30115,609.33273 C 549.02542,603.6084 551.8876,596.66762 551.8877,588.51036 L 551.8877,546.22163 C 551.8876,537.49208 549.16853,530.26508 543.73048,524.54061 C 538.29226,518.67326 531.42303,515.73953 523.12278,515.7394 L 493.28454,515.7394 L 493.28454,617.91927"
         id="text3446" />
    </g>
    <g
       id="g3239"
       transform="matrix(0.6310086,0,0,0.6310086,6.5580153,339.67154)">
      <rect
         y="765.0874"
         x="53.02594"
         height="248.13864"
         width="248.13864"
         id="rect2405"
         style="fill:#ffffff;fill-opacity:1;fill-rule:nonzero;stroke:#000000;stroke-width:11.23061371;stroke-linecap:round;stroke-linejoin:round;marker:none;marker-start:none;marker-mid:none;marker-end:none;stroke-miterlimit:4;stroke-dasharray:none;stroke-dashoffset:0;stroke-opacity:1;visibility:visible;display:inline;overflow:visible" />
      <g
         transform="matrix(0.1636168,0,0,0.1636168,144.26879,788.44689)"
         id="g2409">
        <circle
           sodipodi:ry="56"
           sodipodi:rx="56"
           sodipodi:cy="105"
           sodipodi:cx="188"
           r="56"
           cx="188"
           cy="105"
           style="fill:#000000;stroke:none"
           id="circle2411" />
        <path
           style="fill:#000000;stroke:none"
           d="M 22,427 C 173.66667,190.33333 159.33333,183.66667 216,182 C 249,183 250,192 306,236 C 375,286.66667 370,287.33333 369,343 C 368.66667,410 373.33333,405 320,430 L 320,317 L 273,275 L 273,434 L 161,433 L 160,307 C 68,449 74,441 22,427 z"
           id="path2413" />
        <path
           style="fill:#000000;stroke:none"
           d="M 163,450 L 272,450 C 272,475 280,473 338,582 C 399,694.33333 400,686.66667 365,751 L 214,480 C 71,756.66667 89,748.33333 10,743 L 89,595 C 156.66667,472.66667 160.33333,472.33333 163,450 z"
           id="path2415" />
      </g>
      <g
         transform="matrix(1.000432,0,0,1.000432,-694.06863,-65.624154)"
         id="g2417">
        <g
           id="g2419"
           transform="matrix(1.8617025,1.0748544,-1.0748544,1.8617025,711.6811,-646.94144)">
          <path
             id="path2421"
             d="M 441.99967,577.8407 C 447.09906,580.78282 450.00003,585.80404 450.00002,591.68829"
             style="fill:none;fill-opacity:1;fill-rule:nonzero;stroke:#000000;stroke-width:2.61099653;stroke-linecap:butt;stroke-linejoin:miter;marker:none;marker-start:none;marker-mid:none;marker-end:none;stroke-miterlimit:4;stroke-dasharray:none;stroke-dashoffset:0;stroke-opacity:1;visibility:visible;display:inline;overflow:visible" />
          <path
             id="path2423"
             d="M 452.59237,559.21353 C 464.49092,566.10592 471.25987,577.86891 471.25983,591.65373"
             style="fill:none;fill-opacity:1;fill-rule:nonzero;stroke:#000000;stroke-width:2.61099653;stroke-linecap:butt;stroke-linejoin:miter;marker:none;marker-start:none;marker-mid:none;marker-end:none;stroke-miterlimit:4;stroke-dasharray:none;stroke-dashoffset:0;stroke-opacity:1;visibility:visible;display:inline;overflow:visible" />
          <path
             id="path2425"
             d="M 447.29601,568.58837 C 455.79497,573.50563 460.62995,581.89773 460.62992,591.73226"
             style="fill:none;fill-opacity:1;fill-rule:nonzero;stroke:#000000;stroke-width:2.61099653;stroke-linecap:butt;stroke-linejoin:miter;marker:none;marker-start:none;marker-mid:none;marker-end:none;stroke-miterlimit:4;stroke-dasharray:none;stroke-dashoffset:0;stroke-opacity:1;visibility:visible;display:inline;overflow:visible" />
        </g>
        <g
           id="g2427"
           transform="matrix(1.8617025,-1.0748544,1.0748544,1.8617025,-540.17697,259.34466)">
          <path
             id="path2429"
             d="M 393.3071,591.76683 C 393.30708,585.88257 396.20806,580.86137 401.30742,577.91925"
             style="fill:none;fill-opacity:1;fill-rule:nonzero;stroke:#000000;stroke-width:2.61099653;stroke-linecap:butt;stroke-linejoin:miter;marker:none;marker-start:none;marker-mid:none;marker-end:none;stroke-miterlimit:4;stroke-dasharray:none;stroke-dashoffset:0;stroke-opacity:1;visibility:visible;display:inline;overflow:visible" />
          <path
             id="path2431"
             d="M 372.04724,591.73226 C 372.0472,577.94743 378.8161,566.18446 390.71466,559.29205"
             style="fill:none;fill-opacity:1;fill-rule:nonzero;stroke:#000000;stroke-width:2.61099653;stroke-linecap:butt;stroke-linejoin:miter;marker:none;marker-start:none;marker-mid:none;marker-end:none;stroke-miterlimit:4;stroke-dasharray:none;stroke-dashoffset:0;stroke-opacity:1;visibility:visible;display:inline;overflow:visible" />
          <path
             id="path2433"
             d="M 382.67717,591.81081 C 382.67714,581.97627 387.51208,573.58417 396.01104,568.66692"
             style="fill:none;fill-opacity:1;fill-rule:nonzero;stroke:#000000;stroke-width:2.61099653;stroke-linecap:butt;stroke-linejoin:miter;marker:none;marker-start:none;marker-mid:none;marker-end:none;stroke-miterlimit:4;stroke-dasharray:none;stroke-dashoffset:0;stroke-opacity:1;visibility:visible;display:inline;overflow:visible" />
        </g>
      </g>
      <path
         id="text2435"
         d="M 105.8125,932.59375 L 105.8125,985.75 L 113.9375,985.75 L 113.9375,968.25 L 113.90625,968.25 L 113.90625,932.59375 L 105.8125,932.59375 z M 118.8125,932.59375 L 118.8125,939.59375 L 127,939.59375 C 129.33839,939.5938 131.30249,940.36507 132.84375,941.90625 C 134.4381,943.44753 135.21872,945.37098 135.21875,947.65625 C 135.21872,950.04786 134.4381,951.98069 132.84375,953.46875 C 131.24934,954.95687 129.17598,955.68755 126.625,955.6875 L 118.8125,955.6875 L 118.8125,962.875 L 124.3125,962.875 L 135.3125,985.75 L 144.78125,985.75 L 132.59375,962 C 135.83563,960.77767 138.33989,958.90416 140.09375,956.40625 C 141.90067,953.90842 142.7812,951.05443 142.78125,947.8125 C 142.7812,943.45457 141.31989,939.83868 138.34375,936.96875 C 135.42069,934.04578 131.75484,932.59378 127.34375,932.59375 L 118.8125,932.59375 z M 151.28125,932.59375 L 151.28125,985.75 L 159.40625,985.75 L 159.40625,962.78125 L 181.65625,962.78125 L 181.65625,955.6875 L 159.40625,955.6875 L 159.40625,940.15625 L 185.40625,940.15625 L 185.40625,932.59375 L 151.28125,932.59375 z M 191.90625,932.59375 L 191.90625,985.75 L 199.96875,985.75 L 199.96875,932.59375 L 191.90625,932.59375 z M 210.4375,932.59375 L 210.4375,985.75 L 218.4375,985.75 L 218.4375,932.59375 L 210.4375,932.59375 z M 223.34375,932.59375 L 223.34375,940.15625 L 229.5625,940.15625 C 232.64494,940.1563 235.19918,941.22733 237.21875,943.40625 C 239.23827,945.53213 240.24997,948.22689 240.25,951.46875 L 240.25,967.1875 C 240.24996,970.21684 239.1883,972.78044 237.0625,974.90625 C 234.98977,977.03209 232.47616,978.09375 229.5,978.09375 L 223.34375,978.09375 L 223.34375,985.75 L 229.15625,985.75 C 234.41767,985.75 238.84543,984.00766 242.40625,980.5 C 246.39216,976.62035 248.37496,972.18323 248.375,967.1875 L 248.375,951.46875 C 248.37496,946.20734 246.54204,941.76085 242.875,938.09375 C 239.2079,934.42673 234.77078,932.59378 229.5625,932.59375 L 223.34375,932.59375 z"
         style="font-size:79.71899414px;font-style:normal;font-variant:normal;font-weight:normal;font-stretch:normal;text-align:start;line-height:100%;writing-mode:lr-tb;text-anchor:start;fill:#000000;fill-opacity:1;stroke:none;stroke-width:1pt;stroke-linecap:butt;stroke-linejoin:miter;stroke-opacity:1;font-family:Fette-Mittelschrift;-inkscape-font-specification:Fette-Mittelschrift" />
    </g>
    <path
       style="font-size:25.35760307px;font-style:normal;font-variant:normal;font-weight:normal;font-stretch:normal;text-align:start;line-height:100%;writing-mode:lr-tb;text-anchor:start;fill:#000000;fill-opacity:1;stroke:none;stroke-width:1pt;stroke-linecap:butt;stroke-linejoin:miter;stroke-opacity:1;font-family:Bitstream Vera Sans"
       d="M 49.680742,1002.1355 L 49.680742,1004.5747 C 48.73147,1004.1207 47.835866,1003.7823 46.993926,1003.5594 C 46.151964,1003.3365 45.338904,1003.2251 44.554742,1003.2251 C 43.192754,1003.2251 42.140316,1003.4892 41.397423,1004.0175 C 40.662775,1004.5458 40.295453,1005.297 40.295457,1006.271 C 40.295453,1007.0882 40.538958,1007.7072 41.025974,1008.1282 C 41.521234,1008.5409 42.453984,1008.8752 43.824225,1009.1311 L 45.334786,1009.4407 C 47.200275,1009.7956 48.574636,1010.423 49.457872,1011.3227 C 50.349336,1012.2142 50.795075,1013.4111 50.79509,1014.9134 C 50.795075,1016.7046 50.192502,1018.0624 48.98737,1018.9869 C 47.790466,1019.9114 46.032275,1020.3737 43.71279,1020.3737 C 42.837814,1020.3737 41.905065,1020.2746 40.914539,1020.0765 C 39.932259,1019.8784 38.912838,1019.5854 37.856274,1019.1974 L 37.856274,1016.622 C 38.871566,1017.1916 39.866223,1017.6208 40.840249,1017.9097 C 41.814266,1018.1986 42.771779,1018.3431 43.71279,1018.3431 C 45.140797,1018.3431 46.242763,1018.0624 47.018689,1017.5011 C 47.794593,1016.9398 48.182551,1016.1391 48.182563,1015.0991 C 48.182551,1014.1911 47.901901,1013.4812 47.340612,1012.9694 C 46.787554,1012.4577 45.875441,1012.0738 44.604269,1011.8179 L 43.081327,1011.5208 C 41.215821,1011.1493 39.866223,1010.5674 39.03253,1009.775 C 38.19883,1008.9826 37.781982,1007.8806 37.781984,1006.4691 C 37.781982,1004.8347 38.355664,1003.547 39.503032,1002.606 C 40.658648,1001.665 42.247623,1001.1945 44.269964,1001.1945 C 45.13667,1001.1945 46.019893,1001.2729 46.919636,1001.4297 C 47.819357,1001.5866 48.739725,1001.8218 49.680742,1002.1355 M 64.575857,1006.6796 L 64.575857,1008.8092 C 63.932,1008.4543 63.284028,1008.1901 62.631939,1008.0168 C 61.988084,1007.8352 61.335985,1007.7444 60.67564,1007.7444 C 59.19809,1007.7444 58.050726,1008.2149 57.233543,1009.1559 C 56.41635,1010.0886 56.007757,1011.4011 56.007761,1013.0932 C 56.007757,1014.7854 56.41635,1016.102 57.233543,1017.043 C 58.050726,1017.9757 59.19809,1018.4421 60.67564,1018.4421 C 61.335985,1018.4421 61.988084,1018.3554 62.631939,1018.1821 C 63.284028,1018.0005 63.932,1017.7322 64.575857,1017.3773 L 64.575857,1019.4822 C 63.940254,1019.7793 63.279901,1020.0022 62.594794,1020.1508 C 61.917921,1020.2994 61.19566,1020.3737 60.428007,1020.3737 C 58.33963,1020.3737 56.680492,1019.7174 55.450587,1018.405 C 54.220675,1017.0925 53.605721,1015.3219 53.605722,1013.0932 C 53.605721,1010.8315 54.224802,1009.0527 55.462968,1007.7568 C 56.709382,1006.4608 58.41392,1005.8129 60.576586,1005.8128 C 61.278204,1005.8129 61.963321,1005.8871 62.631939,1006.0357 C 63.300537,1006.1761 63.948509,1006.3907 64.575857,1006.6796 M 80.090054,1011.6446 L 80.090054,1020.0146 L 77.811832,1020.0146 L 77.811832,1011.7189 C 77.81182,1010.4064 77.555933,1009.4242 77.04417,1008.7721 C 76.532385,1008.12 75.764724,1007.7939 74.741184,1007.7939 C 73.511267,1007.7939 72.541373,1008.186 71.831499,1008.9702 C 71.121613,1009.7543 70.766673,1010.8233 70.766677,1012.177 L 70.766677,1020.0146 L 68.476074,1020.0146 L 68.476074,1000.7488 L 70.766677,1000.7488 L 70.766677,1008.3016 C 71.311464,1007.4679 71.951182,1006.8447 72.685832,1006.4319 C 73.428723,1006.0192 74.283056,1005.8129 75.248832,1005.8128 C 76.841926,1005.8129 78.047071,1006.3081 78.864271,1007.2986 C 79.681446,1008.2809 80.09004,1009.7296 80.090054,1011.6446 M 90.961135,1013.0437 C 89.120391,1013.0437 87.845083,1013.2542 87.135208,1013.6752 C 86.425323,1014.0962 86.070383,1014.8143 86.070386,1015.8296 C 86.070383,1016.6385 86.334524,1017.2824 86.862811,1017.7611 C 87.399344,1018.2316 88.125733,1018.4669 89.041981,1018.4669 C 90.3049,1018.4669 91.316066,1018.0211 92.075483,1017.1297 C 92.843134,1016.2299 93.226965,1015.0372 93.226976,1013.5514 L 93.226976,1013.0437 L 90.961135,1013.0437 M 95.505198,1012.1027 L 95.505198,1020.0146 L 93.226976,1020.0146 L 93.226976,1017.9097 C 92.706936,1018.7517 92.058964,1019.3749 91.283058,1019.7793 C 90.507133,1020.1755 89.557875,1020.3737 88.43528,1020.3737 C 87.015514,1020.3737 85.884658,1019.9774 85.04271,1019.185 C 84.209011,1018.3843 83.792163,1017.3154 83.792164,1015.9782 C 83.792163,1014.4181 84.312191,1013.2418 85.352251,1012.4494 C 86.400559,1011.657 87.960645,1011.2608 90.032512,1011.2608 L 93.226976,1011.2608 L 93.226976,1011.0379 C 93.226965,1009.9896 92.880279,1009.1807 92.186918,1008.6111 C 91.501791,1008.0333 90.536024,1007.7444 89.289613,1007.7444 C 88.497182,1007.7444 87.725394,1007.8393 86.974246,1008.0292 C 86.223089,1008.219 85.500828,1008.5038 84.807459,1008.8835 L 84.807459,1006.7786 C 85.641153,1006.4567 86.450086,1006.2173 87.234261,1006.0605 C 88.018426,1005.8954 88.78196,1005.8129 89.524865,1005.8128 C 91.530681,1005.8129 93.028859,1006.3329 94.019401,1007.3729 C 95.009919,1008.413 95.505184,1009.9896 95.505198,1012.1027 M 110.16507,1013.0932 C 110.16505,1011.4176 109.81837,1010.1052 109.12501,1009.1559 C 108.43988,1008.1984 107.49475,1007.7196 106.28961,1007.7196 C 105.08446,1007.7196 104.1352,1008.1984 103.44183,1009.1559 C 102.75671,1010.1052 102.41415,1011.4176 102.41416,1013.0932 C 102.41415,1014.7689 102.75671,1016.0855 103.44183,1017.043 C 104.1352,1017.9923 105.08446,1018.4669 106.28961,1018.4669 C 107.49475,1018.4669 108.43988,1017.9923 109.12501,1017.043 C 109.81837,1016.0855 110.16505,1014.7689 110.16507,1013.0932 M 102.41416,1008.252 C 102.89291,1007.4266 103.49548,1006.8158 104.22188,1006.4195 C 104.95651,1006.0151 105.83148,1005.8129 106.84679,1005.8128 C 108.53068,1005.8129 109.89678,1006.4815 110.94511,1007.8187 C 112.00166,1009.1559 112.52994,1010.9141 112.52996,1013.0932 C 112.52994,1015.2724 112.00166,1017.0306 110.94511,1018.3678 C 109.89678,1019.705 108.53068,1020.3737 106.84679,1020.3737 C 105.83148,1020.3737 104.95651,1020.1755 104.22188,1019.7793 C 103.49548,1019.3749 102.89291,1018.7599 102.41416,1017.9345 L 102.41416,1020.0146 L 100.12355,1020.0146 L 100.12355,1000.7488 L 102.41416,1000.7488 L 102.41416,1008.252 M 116.30636,1000.7488 L 118.58458,1000.7488 L 118.58458,1020.0146 L 116.30636,1020.0146 L 116.30636,1000.7488 M 128.71276,1007.7444 C 127.4911,1007.7444 126.52533,1008.2231 125.81546,1009.1807 C 125.10557,1010.1299 124.75063,1011.4341 124.75064,1013.0932 C 124.75063,1014.7524 125.10145,1016.0607 125.80308,1017.0182 C 126.51295,1017.9675 127.48285,1018.4421 128.71276,1018.4421 C 129.92616,1018.4421 130.8878,1017.9634 131.59769,1017.0058 C 132.30756,1016.0483 132.6625,1014.7441 132.66251,1013.0932 C 132.6625,1011.4506 132.30756,1010.1506 131.59769,1009.193 C 130.8878,1008.2273 129.92616,1007.7444 128.71276,1007.7444 M 128.71276,1005.8128 C 130.69382,1005.8129 132.24978,1006.4567 133.38064,1007.7444 C 134.51149,1009.0321 135.07691,1010.815 135.07693,1013.0932 C 135.07691,1015.3632 134.51149,1017.1462 133.38064,1018.4421 C 132.24978,1019.7298 130.69382,1020.3737 128.71276,1020.3737 C 126.72344,1020.3737 125.16336,1019.7298 124.0325,1018.4421 C 122.9099,1017.1462 122.3486,1015.3632 122.3486,1013.0932 C 122.3486,1010.815 122.9099,1009.0321 124.0325,1007.7444 C 125.16336,1006.4567 126.72344,1005.8129 128.71276,1005.8128 M 150.36826,1011.6446 L 150.36826,1020.0146 L 148.09003,1020.0146 L 148.09003,1011.7189 C 148.09002,1010.4064 147.83414,1009.4242 147.32237,1008.7721 C 146.81059,1008.12 146.04293,1007.7939 145.01939,1007.7939 C 143.78947,1007.7939 142.81958,1008.186 142.1097,1008.9702 C 141.39981,1009.7543 141.04487,1010.8233 141.04488,1012.177 L 141.04488,1020.0146 L 138.75428,1020.0146 L 138.75428,1006.1471 L 141.04488,1006.1471 L 141.04488,1008.3016 C 141.58967,1007.4679 142.22938,1006.8447 142.96403,1006.4319 C 143.70693,1006.0192 144.56126,1005.8129 145.52703,1005.8128 C 147.12013,1005.8129 148.32527,1006.3081 149.14247,1007.2986 C 149.95965,1008.2809 150.36824,1009.7296 150.36826,1011.6446 M 166.79869,1012.5113 L 166.79869,1013.6257 L 156.32382,1013.6257 C 156.42287,1015.194 156.89337,1016.3909 157.73533,1017.2163 C 158.58553,1018.0335 159.76591,1018.4421 161.27648,1018.4421 C 162.15144,1018.4421 162.99752,1018.3348 163.81471,1018.1202 C 164.64015,1017.9056 165.45733,1017.5837 166.26628,1017.1544 L 166.26628,1019.3088 C 165.44908,1019.6555 164.61126,1019.9197 163.75281,1020.1013 C 162.89434,1020.2829 162.02349,1020.3737 161.14028,1020.3737 C 158.92809,1020.3737 157.17402,1019.7298 155.87808,1018.4421 C 154.59039,1017.1544 153.94654,1015.4127 153.94655,1013.2171 C 153.94654,1010.9471 154.55737,1009.1476 155.77903,1007.8187 C 157.00893,1006.4815 158.66395,1005.8129 160.74407,1005.8128 C 162.60956,1005.8129 164.08297,1006.4154 165.16431,1007.6206 C 166.25388,1008.8175 166.79868,1010.4477 166.79869,1012.5113 M 164.52047,1011.8427 C 164.50395,1010.5963 164.15313,1009.6016 163.46803,1008.8587 C 162.79116,1008.1158 161.89142,1007.7444 160.76883,1007.7444 C 159.49764,1007.7444 158.47822,1008.1035 157.71057,1008.8216 C 156.95115,1009.5397 156.51367,1010.5509 156.39811,1011.8551 L 164.52047,1011.8427 M 182.06525,1011.6446 L 182.06525,1020.0146 L 179.78703,1020.0146 L 179.78703,1011.7189 C 179.78702,1010.4064 179.53113,1009.4242 179.01937,1008.7721 C 178.50759,1008.12 177.73992,1007.7939 176.71639,1007.7939 C 175.48647,1007.7939 174.51657,1008.186 173.8067,1008.9702 C 173.09681,1009.7543 172.74187,1010.8233 172.74188,1012.177 L 172.74188,1020.0146 L 170.45127,1020.0146 L 170.45127,1006.1471 L 172.74188,1006.1471 L 172.74188,1008.3016 C 173.28667,1007.4679 173.92638,1006.8447 174.66103,1006.4319 C 175.40392,1006.0192 176.25826,1005.8129 177.22403,1005.8128 C 178.81713,1005.8129 180.02227,1006.3081 180.83947,1007.2986 C 181.65665,1008.2809 182.06524,1009.7296 182.06525,1011.6446 M 184.9997,1006.1471 L 187.41412,1006.1471 L 191.74769,1017.7859 L 196.08127,1006.1471 L 198.49569,1006.1471 L 193.2954,1020.0146 L 190.19999,1020.0146 L 184.9997,1006.1471 M 207.94289,1013.0437 C 206.10215,1013.0437 204.82684,1013.2542 204.11697,1013.6752 C 203.40708,1014.0962 203.05214,1014.8143 203.05214,1015.8296 C 203.05214,1016.6385 203.31628,1017.2824 203.84457,1017.7611 C 204.3811,1018.2316 205.10749,1018.4669 206.02374,1018.4669 C 207.28666,1018.4669 208.29782,1018.0211 209.05724,1017.1297 C 209.82489,1016.2299 210.20872,1015.0372 210.20873,1013.5514 L 210.20873,1013.0437 L 207.94289,1013.0437 M 212.48696,1012.1027 L 212.48696,1020.0146 L 210.20873,1020.0146 L 210.20873,1017.9097 C 209.68869,1018.7517 209.04072,1019.3749 208.26482,1019.7793 C 207.48889,1020.1755 206.53963,1020.3737 205.41704,1020.3737 C 203.99727,1020.3737 202.86642,1019.9774 202.02447,1019.185 C 201.19077,1018.3843 200.77392,1017.3154 200.77392,1015.9782 C 200.77392,1014.4181 201.29395,1013.2418 202.33401,1012.4494 C 203.38232,1011.657 204.9424,1011.2608 207.01427,1011.2608 L 210.20873,1011.2608 L 210.20873,1011.0379 C 210.20872,1009.9896 209.86204,1009.1807 209.16868,1008.6111 C 208.48355,1008.0333 207.51778,1007.7444 206.27137,1007.7444 C 205.47894,1007.7444 204.70715,1007.8393 203.956,1008.0292 C 203.20485,1008.219 202.48259,1008.5038 201.78922,1008.8835 L 201.78922,1006.7786 C 202.62291,1006.4567 203.43184,1006.2173 204.21602,1006.0605 C 205.00018,1005.8954 205.76372,1005.8129 206.50662,1005.8128 C 208.51244,1005.8129 210.01062,1006.3329 211.00116,1007.3729 C 211.99168,1008.413 212.48694,1009.9896 212.48696,1012.1027 M 225.22767,1008.2768 C 224.97177,1008.1282 224.69112,1008.0209 224.38572,1007.9549 C 224.08855,1007.8806 223.75837,1007.8434 223.39519,1007.8434 C 222.10749,1007.8434 221.11696,1008.2644 220.42359,1009.1064 C 219.73847,1009.9401 219.39591,1011.1411 219.39592,1012.7094 L 219.39592,1020.0146 L 217.10531,1020.0146 L 217.10531,1006.1471 L 219.39592,1006.1471 L 219.39592,1008.3016 C 219.87467,1007.4596 220.49788,1006.8364 221.26554,1006.4319 C 222.0332,1006.0192 222.96595,1005.8129 224.06379,1005.8128 C 224.22062,1005.8129 224.39396,1005.8252 224.58382,1005.85 C 224.77367,1005.8665 224.98415,1005.8954 225.21529,1005.9367 L 225.22767,1008.2768 M 227.64209,1006.1471 L 229.92031,1006.1471 L 229.92031,1020.0146 L 227.64209,1020.0146 L 227.64209,1006.1471 M 227.64209,1000.7488 L 229.92031,1000.7488 L 229.92031,1003.6337 L 227.64209,1003.6337 L 227.64209,1000.7488 M 240.9771,1013.0437 C 239.13636,1013.0437 237.86105,1013.2542 237.15118,1013.6752 C 236.44129,1014.0962 236.08635,1014.8143 236.08635,1015.8296 C 236.08635,1016.6385 236.35049,1017.2824 236.87878,1017.7611 C 237.41531,1018.2316 238.1417,1018.4669 239.05795,1018.4669 C 240.32087,1018.4669 241.33203,1018.0211 242.09145,1017.1297 C 242.8591,1016.2299 243.24293,1015.0372 243.24294,1013.5514 L 243.24294,1013.0437 L 240.9771,1013.0437 M 245.52117,1012.1027 L 245.52117,1020.0146 L 243.24294,1020.0146 L 243.24294,1017.9097 C 242.7229,1018.7517 242.07493,1019.3749 241.29903,1019.7793 C 240.5231,1020.1755 239.57384,1020.3737 238.45125,1020.3737 C 237.03148,1020.3737 235.90063,1019.9774 235.05868,1019.185 C 234.22498,1018.3843 233.80813,1017.3154 233.80813,1015.9782 C 233.80813,1014.4181 234.32816,1013.2418 235.36822,1012.4494 C 236.41653,1011.657 237.97661,1011.2608 240.04848,1011.2608 L 243.24294,1011.2608 L 243.24294,1011.0379 C 243.24293,1009.9896 242.89625,1009.1807 242.20289,1008.6111 C 241.51776,1008.0333 240.55199,1007.7444 239.30558,1007.7444 C 238.51315,1007.7444 237.74136,1007.8393 236.99021,1008.0292 C 236.23906,1008.219 235.5168,1008.5038 234.82343,1008.8835 L 234.82343,1006.7786 C 235.65712,1006.4567 236.46605,1006.2173 237.25023,1006.0605 C 238.03439,1005.8954 238.79793,1005.8129 239.54083,1005.8128 C 241.54665,1005.8129 243.04483,1006.3329 244.03537,1007.3729 C 245.02589,1008.413 245.52115,1009.9896 245.52117,1012.1027 M 261.7535,1011.6446 L 261.7535,1020.0146 L 259.47528,1020.0146 L 259.47528,1011.7189 C 259.47527,1010.4064 259.21938,1009.4242 258.70762,1008.7721 C 258.19583,1008.12 257.42817,1007.7939 256.40463,1007.7939 C 255.17472,1007.7939 254.20482,1008.186 253.49495,1008.9702 C 252.78506,1009.7543 252.43012,1010.8233 252.43013,1012.177 L 252.43013,1020.0146 L 250.13952,1020.0146 L 250.13952,1006.1471 L 252.43013,1006.1471 L 252.43013,1008.3016 C 252.97491,1007.4679 253.61463,1006.8447 254.34928,1006.4319 C 255.09217,1006.0192 255.9465,1005.8129 256.91228,1005.8128 C 258.50537,1005.8129 259.71052,1006.3081 260.52772,1007.2986 C 261.34489,1008.2809 261.75349,1009.7296 261.7535,1011.6446 M 268.57578,1002.2098 L 268.57578,1006.1471 L 273.26842,1006.1471 L 273.26842,1007.9177 L 268.57578,1007.9177 L 268.57578,1015.4458 C 268.57578,1016.5766 268.72848,1017.303 269.0339,1017.6249 C 269.34757,1017.9469 269.97903,1018.1078 270.92829,1018.1078 L 273.26842,1018.1078 L 273.26842,1020.0146 L 270.92829,1020.0146 C 269.1701,1020.0146 267.9567,1019.6885 267.28809,1019.0364 C 266.61948,1018.3761 266.28518,1017.1792 266.28518,1015.4458 L 266.28518,1007.9177 L 264.61366,1007.9177 L 264.61366,1006.1471 L 266.28518,1006.1471 L 266.28518,1002.2098 L 268.57578,1002.2098 M 288.13879,1012.5113 L 288.13879,1013.6257 L 277.66392,1013.6257 C 277.76297,1015.194 278.23347,1016.3909 279.07542,1017.2163 C 279.92562,1018.0335 281.10601,1018.4421 282.61657,1018.4421 C 283.49153,1018.4421 284.33761,1018.3348 285.15481,1018.1202 C 285.98024,1017.9056 286.79743,1017.5837 287.60638,1017.1544 L 287.60638,1019.3088 C 286.78917,1019.6555 285.95135,1019.9197 285.0929,1020.1013 C 284.23443,1020.2829 283.36359,1020.3737 282.48038,1020.3737 C 280.26818,1020.3737 278.51412,1019.7298 277.21818,1018.4421 C 275.93048,1017.1544 275.28664,1015.4127 275.28664,1013.2171 C 275.28664,1010.9471 275.89747,1009.1476 277.11912,1007.8187 C 278.34903,1006.4815 280.00404,1005.8129 282.08416,1005.8128 C 283.94965,1005.8129 285.42307,1006.4154 286.50441,1007.6206 C 287.59398,1008.8175 288.13877,1010.4477 288.13879,1012.5113 M 285.86056,1011.8427 C 285.84404,1010.5963 285.49323,1009.6016 284.80812,1008.8587 C 284.13125,1008.1158 283.23152,1007.7444 282.10893,1007.7444 C 280.83774,1007.7444 279.81832,1008.1035 279.05066,1008.8216 C 278.29125,1009.5397 277.85376,1010.5509 277.73821,1011.8551 L 285.86056,1011.8427"
       id="text3256" />
  </g>
</svg>

