<?xml version="1.0" encoding="utf-8"?>
<!-- Generator: Adobe Illustrator 12.0.0, SVG Export Plug-In . SVG Version: 6.00 Build 51448)  -->
<!DOCTYPE svg PUBLIC "-//W3C//DTD SVG 1.1//EN" "http://www.w3.org/Graphics/SVG/1.1/DTD/svg11.dtd" [
	<!ENTITY ns_svg "http://www.w3.org/2000/svg">
	<!ENTITY ns_xlink "http://www.w3.org/1999/xlink">
]>
<svg  version="1.1" id="Layer_1" xmlns="&ns_svg;" xmlns:xlink="&ns_xlink;" width="1024" height="1024" viewBox="0 0 1024 1024"
	 overflow="visible" enable-background="new 0 0 1024 1024" xml:space="preserve">
<g>
	<rect width="1024" height="1024"/>
	<g>
		<path fill="#FFFFFF" d="M859.003,170.43h5.947c10.65,0,14.86,5.203,14.86,17.835v23.533c0,13.376-5.449,17.834-14.86,17.834
			h-5.947V170.43z M841.912,244.744h23.78c19.568,0,30.468-8.422,31.21-30.963v-27.496c-0.742-22.542-11.642-30.964-31.21-30.964
			h-23.78V244.744z M823.953,155.32H806.86v89.423h17.093V155.32z M752.488,170.43h5.943c10.652,0,14.864,5.203,14.864,17.835
			v23.533c0,13.376-5.449,17.834-14.864,17.834h-5.943V170.43z M735.396,244.744h23.781c19.568,0,30.468-8.422,31.21-30.963v-27.496
			c-0.742-22.542-11.642-30.964-31.21-30.964h-23.781V244.744z M717.436,155.32h-17.091v89.423h17.091V155.32z M645.972,170.43
			h5.945c10.652,0,14.863,5.203,14.863,17.835v23.533c0,13.376-5.449,17.834-14.863,17.834h-5.945V170.43z M628.881,244.744h23.78
			c19.569,0,30.468-8.422,31.211-30.963v-27.496c-0.743-22.542-11.642-30.964-31.211-30.964h-23.78V244.744z M610.921,155.32
			h-17.092v89.423h17.092V155.32z M574.88,155.32h-17.093v89.423h17.093V155.32z M538.838,155.32h-17.093v89.423h17.093V155.32z
			 M467.375,170.43h5.945c10.651,0,14.862,5.203,14.862,17.835v23.533c0,13.376-5.45,17.834-14.862,17.834h-5.945V170.43z
			 M450.281,244.744h23.782c19.569,0,30.468-8.422,31.211-30.963v-27.496c-0.743-22.542-11.642-30.964-31.211-30.964h-23.782
			V244.744z M432.324,155.32h-17.093v89.423h17.093V155.32z M360.86,170.43h5.945c10.65,0,14.862,5.203,14.862,17.835v23.533
			c0,13.376-5.45,17.834-14.862,17.834h-5.945V170.43z M343.767,244.744h23.78c19.569,0,30.468-8.422,31.211-30.963v-27.496
			c-0.743-22.542-11.642-30.964-31.211-30.964h-23.78V244.744z M290.386,170.43h5.945c10.651,0,14.862,5.203,14.862,17.835v23.533
			c0,13.376-5.45,17.834-14.862,17.834h-5.945V170.43z M273.293,244.744h23.78c19.569,0,30.469-8.422,31.212-30.963v-27.496
			c-0.743-22.542-11.643-30.964-31.212-30.964h-23.78V244.744z M255.335,155.32h-17.092v89.423h17.092V155.32z M183.871,170.43
			h5.945c10.651,0,14.862,5.203,14.862,17.835v23.533c0,13.376-5.45,17.834-14.862,17.834h-5.945V170.43z M166.778,244.744h23.78
			c19.569,0,30.468-8.422,31.211-30.963v-27.496c-0.743-22.542-11.643-30.964-31.211-30.964h-23.78V244.744z M148.819,155.32
			h-17.092v89.423h17.092V155.32z"/>
		<path fill="#FFFFFF" d="M894.427,349.677 M894.427,260.253h-17.093v89.423h17.093V260.253z M821.771,275.363h5.945
			c10.651,0,14.861,5.203,14.861,17.835v23.533c0,13.376-5.449,17.835-14.861,17.835h-5.945V275.363z M804.678,349.677h23.781
			c19.568,0,30.471-8.422,31.213-30.964v-27.496c-0.742-22.542-11.645-30.964-31.213-30.964h-23.781V349.677z M785.529,260.253
			h-17.094v89.423h17.094V260.253z M712.873,275.363h5.945c10.65,0,14.862,5.203,14.862,17.835v23.533
			c0,13.376-5.449,17.835-14.862,17.835h-5.945V275.363z M695.78,349.677h23.781c19.568,0,30.468-8.422,31.212-30.964v-27.496
			c-0.744-22.542-11.644-30.964-31.212-30.964H695.78V349.677z M676.632,260.253H659.54v89.423h17.092V260.253z M617.849,349.677
			v-38.643h21.553v-15.111h-21.553v-20.56h27.498v-15.11h-44.59v89.423H617.849z M546.185,274.373h8.794
			c7.555,0,12.137,3.715,12.137,12.385s-4.582,12.386-12.137,12.386h-8.794V274.373z M587.552,349.677l-16.845-39.882
			c9.537-3.591,13.502-11.642,13.502-22.789c0-16.844-9.786-26.752-30.346-26.752h-24.771v89.423h17.092v-36.414h8.174
			l14.864,36.414H587.552z M474.52,275.363h5.945c10.652,0,14.864,5.203,14.864,17.835v23.533c0,13.376-5.45,17.835-14.864,17.835
			h-5.945V275.363z M457.429,349.677h23.78c19.569,0,30.469-8.422,31.211-30.964v-27.496c-0.742-22.542-11.642-30.964-31.211-30.964
			h-23.78V349.677z M438.279,260.253h-17.093v89.423h17.093V260.253z M365.623,275.363h5.945c10.652,0,14.862,5.203,14.862,17.835
			v23.533c0,13.376-5.45,17.835-14.862,17.835h-5.945V275.363z M348.531,349.677h23.779c19.569,0,30.468-8.422,31.212-30.964
			v-27.496c-0.744-22.542-11.644-30.964-31.212-30.964h-23.779V349.677z M329.381,260.253h-17.092v89.423h17.092V260.253z
			 M292.149,260.253h-17.092v89.423h17.092V260.253z M219.493,275.363h5.944c10.652,0,14.863,5.203,14.863,17.835v23.533
			c0,13.376-5.45,17.835-14.863,17.835h-5.944V275.363z M202.4,349.677h23.78c19.569,0,30.47-8.422,31.213-30.964v-27.496
			c-0.744-22.542-11.644-30.964-31.213-30.964H202.4V349.677z M147.828,275.363h5.945c10.651,0,14.863,5.203,14.863,17.835v23.533
			c0,13.376-5.45,17.835-14.863,17.835h-5.945V275.363z M130.736,349.677h23.78c19.569,0,30.468-8.422,31.211-30.964v-27.496
			c-0.743-22.542-11.642-30.964-31.211-30.964h-23.78V349.677z"/>
		<path fill="#FFFFFF" d="M859.003,380.296h5.947c10.65,0,14.86,5.203,14.86,17.835v23.533c0,13.376-5.449,17.834-14.86,17.834
			h-5.947V380.296z M841.912,454.61h23.78c19.568,0,30.468-8.422,31.21-30.964V396.15c-0.742-22.542-11.642-30.964-31.21-30.964
			h-23.78V454.61z M823.953,365.187H806.86v89.423h17.093V365.187z M787.911,365.187h-17.093v89.423h17.093V365.187z
			 M716.446,380.296h5.945c10.65,0,14.862,5.203,14.862,17.835v23.533c0,13.376-5.449,17.834-14.862,17.834h-5.945V380.296z
			 M699.354,454.61h23.78c19.569,0,30.469-8.422,31.211-30.964V396.15c-0.742-22.542-11.642-30.964-31.211-30.964h-23.78V454.61z
			 M645.972,380.296h5.945c10.652,0,14.863,5.203,14.863,17.835v23.533c0,13.376-5.449,17.834-14.863,17.834h-5.945V380.296z
			 M628.881,454.61h23.78c19.569,0,30.468-8.422,31.211-30.964V396.15c-0.743-22.542-11.642-30.964-31.211-30.964h-23.78V454.61z
			 M610.921,365.187h-17.092v89.423h17.092V365.187z M574.88,365.187h-17.093v89.423h17.093V365.187z M538.838,365.187h-17.093
			v89.423h17.093V365.187z M502.797,365.187h-17.093v89.423h17.093V365.187z M431.333,380.296h5.945
			c10.65,0,14.862,5.203,14.862,17.835v23.533c0,13.376-5.449,17.834-14.862,17.834h-5.945V380.296z M414.24,454.61h23.781
			c19.569,0,30.468-8.422,31.212-30.964V396.15c-0.744-22.542-11.644-30.964-31.212-30.964H414.24V454.61z M396.282,365.187h-17.093
			v89.423h17.093V365.187z M324.818,380.296h5.944c10.651,0,14.863,5.203,14.863,17.835v23.533c0,13.376-5.45,17.834-14.863,17.834
			h-5.944V380.296z M307.726,454.61h23.78c19.569,0,30.468-8.422,31.212-30.964V396.15c-0.744-22.542-11.643-30.964-31.212-30.964
			h-23.78V454.61z M289.767,365.187h-17.092v89.423h17.092V365.187z M218.301,380.296h5.945c10.651,0,14.863,5.203,14.863,17.835
			v23.533c0,13.376-5.449,17.834-14.863,17.834h-5.945V380.296z M201.209,454.61h23.781c19.569,0,30.468-8.422,31.211-30.964V396.15
			c-0.744-22.542-11.643-30.964-31.211-30.964h-23.781V454.61z M147.828,380.296h5.945c10.651,0,14.863,5.203,14.863,17.835v23.533
			c0,13.376-5.45,17.834-14.863,17.834h-5.945V380.296z M130.736,454.61h23.78c19.569,0,30.468-8.422,31.211-30.964V396.15
			c-0.743-22.542-11.642-30.964-31.211-30.964h-23.78V454.61z"/>
		<path fill="#FFFFFF" d="M859.003,485.229h5.947c10.65,0,14.86,5.203,14.86,17.835v23.532c0,13.377-5.449,17.835-14.86,17.835
			h-5.947V485.229z M841.912,559.543h23.78c19.568,0,30.468-8.424,31.21-30.964v-27.496c-0.742-22.542-11.642-30.964-31.21-30.964
			h-23.78V559.543z M823.953,470.119H806.86v89.424h17.093V470.119z M752.488,485.229h5.943c10.652,0,14.864,5.203,14.864,17.835
			v23.532c0,13.377-5.449,17.835-14.864,17.835h-5.943V485.229z M735.396,559.543h23.781c19.568,0,30.468-8.424,31.21-30.964
			v-27.496c-0.742-22.542-11.642-30.964-31.21-30.964h-23.781V559.543z M717.436,470.119h-17.091v89.424h17.091V470.119z
			 M645.972,485.229h5.945c10.652,0,14.863,5.203,14.863,17.835v23.532c0,13.377-5.449,17.835-14.863,17.835h-5.945V485.229z
			 M628.881,559.543h23.78c19.569,0,30.468-8.424,31.211-30.964v-27.496c-0.743-22.542-11.642-30.964-31.211-30.964h-23.78V559.543z
			 M610.921,470.119h-17.092v89.424h17.092V470.119z M574.88,470.119h-17.093v89.424h17.093V470.119z M538.838,470.119h-17.093
			v89.424h17.093V470.119z M467.375,485.229h5.945c10.651,0,14.862,5.203,14.862,17.835v23.532c0,13.377-5.45,17.835-14.862,17.835
			h-5.945V485.229z M450.281,559.543h23.782c19.569,0,30.468-8.424,31.211-30.964v-27.496
			c-0.743-22.542-11.642-30.964-31.211-30.964h-23.782V559.543z M432.324,470.119h-17.093v89.424h17.093V470.119z M360.86,485.229
			h5.945c10.65,0,14.862,5.203,14.862,17.835v23.532c0,13.377-5.45,17.835-14.862,17.835h-5.945V485.229z M343.767,559.543h23.78
			c19.569,0,30.468-8.424,31.211-30.964v-27.496c-0.743-22.542-11.642-30.964-31.211-30.964h-23.78V559.543z M290.386,485.229h5.945
			c10.651,0,14.862,5.203,14.862,17.835v23.532c0,13.377-5.45,17.835-14.862,17.835h-5.945V485.229z M273.293,559.543h23.78
			c19.569,0,30.469-8.424,31.212-30.964v-27.496c-0.743-22.542-11.643-30.964-31.212-30.964h-23.78V559.543z M255.335,470.119
			h-17.092v89.424h17.092V470.119z M183.871,485.229h5.945c10.651,0,14.862,5.203,14.862,17.835v23.532
			c0,13.377-5.45,17.835-14.862,17.835h-5.945V485.229z M166.778,559.543h23.78c19.569,0,30.468-8.424,31.211-30.964v-27.496
			c-0.743-22.542-11.643-30.964-31.211-30.964h-23.78V559.543z M148.819,470.119h-17.092v89.424h17.092V470.119z"/>
		<path fill="#FFFFFF" d="M859.003,590.162h5.947c10.65,0,14.86,5.203,14.86,17.836v23.531c0,13.377-5.449,17.836-14.86,17.836
			h-5.947V590.162z M841.912,664.476h23.78c19.568,0,30.468-8.423,31.21-30.964v-27.496c-0.742-22.541-11.642-30.964-31.21-30.964
			h-23.78V664.476z M823.953,575.052H806.86v89.424h17.093V575.052z M787.911,575.052h-17.093v89.424h17.093V575.052z
			 M751.869,575.052h-17.094v89.424h17.094V575.052z M680.404,590.162h5.945c10.65,0,14.862,5.203,14.862,17.836v23.531
			c0,13.377-5.45,17.836-14.862,17.836h-5.945V590.162z M663.312,664.476h23.78c19.569,0,30.469-8.423,31.213-30.964v-27.496
			c-0.744-22.541-11.644-30.964-31.213-30.964h-23.78V664.476z M609.932,590.162h5.944c10.65,0,14.862,5.203,14.862,17.836v23.531
			c0,13.377-5.449,17.836-14.862,17.836h-5.944V590.162z M592.838,664.476h23.781c19.568,0,30.468-8.423,31.211-30.964v-27.496
			c-0.743-22.541-11.643-30.964-31.211-30.964h-23.781V664.476z M574.88,575.052h-17.093v89.424h17.093V575.052z M503.416,590.162
			h5.943c10.653,0,14.865,5.203,14.865,17.836v23.531c0,13.377-5.449,17.836-14.865,17.836h-5.943V590.162z M486.323,664.476h23.781
			c19.57,0,30.47-8.423,31.212-30.964v-27.496c-0.742-22.541-11.642-30.964-31.212-30.964h-23.781V664.476z M432.942,590.162h5.945
			c10.652,0,14.864,5.203,14.864,17.836v23.531c0,13.377-5.45,17.836-14.864,17.836h-5.945V590.162z M415.85,664.476h23.782
			c19.569,0,30.468-8.423,31.211-30.964v-27.496c-0.743-22.541-11.642-30.964-31.211-30.964H415.85V664.476z M397.892,575.052H380.8
			v89.424h17.091V575.052z M326.427,590.162h5.945c10.652,0,14.864,5.203,14.864,17.836v23.531c0,13.377-5.45,17.836-14.864,17.836
			h-5.945V590.162z M309.336,664.476h23.78c19.57,0,30.469-8.423,31.211-30.964v-27.496c-0.743-22.541-11.642-30.964-31.211-30.964
			h-23.78V664.476z M291.376,575.052h-17.091v89.424h17.091V575.052z M219.912,590.162h5.945c10.651,0,14.863,5.203,14.863,17.836
			v23.531c0,13.377-5.45,17.836-14.863,17.836h-5.945V590.162z M202.819,664.476H226.6c19.569,0,30.468-8.423,31.212-30.964v-27.496
			c-0.744-22.541-11.643-30.964-31.212-30.964h-23.781V664.476z M184.861,575.052h-17.092v89.424h17.092V575.052z M148.819,575.052
			h-17.092v89.424h17.092V575.052z"/>
		<path fill="#FFFFFF" d="M894.427,769.408 M894.427,679.984h-17.093v89.424h17.093V679.984z M858.385,679.984H841.29v89.424h17.095
			V679.984z M822.342,679.984h-17.091v89.424h17.091V679.984z M750.878,695.095h5.945c10.651,0,14.861,5.203,14.861,17.836v23.532
			c0,13.377-5.449,17.835-14.861,17.835h-5.945V695.095z M733.786,769.408h23.779c19.569,0,30.468-8.423,31.212-30.964v-27.496
			c-0.744-22.541-11.643-30.964-31.212-30.964h-23.779V769.408z M715.827,679.984h-17.092v89.424h17.092V679.984z M644.362,695.095
			h5.945c10.652,0,14.862,5.203,14.862,17.836v23.532c0,13.377-5.45,17.835-14.862,17.835h-5.945V695.095z M627.271,769.408h23.778
			c19.569,0,30.469-8.423,31.213-30.964v-27.496c-0.744-22.541-11.644-30.964-31.213-30.964h-23.778V769.408z M573.889,695.095
			h5.945c10.65,0,14.862,5.203,14.862,17.836v23.532c0,13.377-5.449,17.835-14.862,17.835h-5.945V695.095z M556.796,769.408h23.78
			c19.569,0,30.471-8.423,31.215-30.964v-27.496c-0.744-22.541-11.646-30.964-31.215-30.964h-23.78V769.408z M538.838,679.984
			h-17.093v89.424h17.093V679.984z M467.375,695.095h5.945c10.651,0,14.862,5.203,14.862,17.836v23.532
			c0,13.377-5.45,17.835-14.862,17.835h-5.945V695.095z M450.281,769.408h23.782c19.569,0,30.468-8.423,31.211-30.964v-27.496
			c-0.743-22.541-11.642-30.964-31.211-30.964h-23.782V769.408z M432.324,679.984h-17.093v89.424h17.093V679.984z M360.86,695.095
			h5.945c10.65,0,14.862,5.203,14.862,17.836v23.532c0,13.377-5.45,17.835-14.862,17.835h-5.945V695.095z M343.767,769.408h23.78
			c19.569,0,30.468-8.423,31.211-30.964v-27.496c-0.743-22.541-11.642-30.964-31.211-30.964h-23.78V769.408z M290.386,695.095h5.945
			c10.651,0,14.862,5.203,14.862,17.836v23.532c0,13.377-5.45,17.835-14.862,17.835h-5.945V695.095z M273.293,769.408h23.78
			c19.569,0,30.469-8.423,31.212-30.964v-27.496c-0.743-22.541-11.643-30.964-31.212-30.964h-23.78V769.408z M255.335,679.984
			h-17.092v89.424h17.092V679.984z M219.292,679.984h-17.092v89.424h17.092V679.984z M147.828,695.095h5.945
			c10.651,0,14.863,5.203,14.863,17.836v23.532c0,13.377-5.45,17.835-14.863,17.835h-5.945V695.095z M130.736,769.408h23.78
			c19.569,0,30.468-8.423,31.211-30.964v-27.496c-0.743-22.541-11.642-30.964-31.211-30.964h-23.78V769.408z"/>
		<path fill="#FFFFFF" d="M859.003,800.028h5.947c10.65,0,14.86,5.202,14.86,17.835v23.531c0,13.379-5.449,17.837-14.86,17.837
			h-5.947V800.028z M841.912,874.341h23.78c19.568,0,30.468-8.423,31.21-30.964v-27.496c-0.742-22.541-11.642-30.964-31.21-30.964
			h-23.78V874.341z M824.059,784.917h-17.091v89.424h17.091V784.917z M788.126,784.917h-17.093v89.424h17.093V784.917z
			 M716.768,800.028h5.945c10.652,0,14.861,5.202,14.861,17.835v23.531c0,13.379-5.449,17.837-14.861,17.837h-5.945V800.028z
			 M699.676,874.341h23.781c19.567,0,30.468-8.423,31.211-30.964v-27.496c-0.743-22.541-11.644-30.964-31.211-30.964h-23.781
			V874.341z M681.825,784.917h-17.093v89.424h17.093V784.917z M610.467,800.028h5.945c10.652,0,14.862,5.202,14.862,17.835v23.531
			c0,13.379-5.45,17.837-14.862,17.837h-5.945V800.028z M593.376,874.341h23.778c19.569,0,30.469-8.423,31.213-30.964v-27.496
			c-0.744-22.541-11.644-30.964-31.213-30.964h-23.778V874.341z M575.525,784.917h-17.093v89.424h17.093V784.917z M539.589,784.917
			h-17.091v89.424h17.091V784.917z M468.234,800.028h5.945c10.651,0,14.862,5.202,14.862,17.835v23.531
			c0,13.379-5.45,17.837-14.862,17.837h-5.945V800.028z M451.141,874.341h23.781c19.569,0,30.468-8.423,31.211-30.964v-27.496
			c-0.743-22.541-11.642-30.964-31.211-30.964h-23.781V874.341z M433.289,784.917h-17.091v89.424h17.091V784.917z M397.355,784.917
			h-17.093v89.424h17.093V784.917z M361.419,784.917h-17.091v89.424h17.091V784.917z M325.486,784.917h-17.092v89.424h17.092
			V784.917z M254.128,800.028h5.945c10.651,0,14.863,5.202,14.863,17.835v23.531c0,13.379-5.45,17.837-14.863,17.837h-5.945V800.028
			z M237.037,874.341h23.78c19.569,0,30.468-8.423,31.212-30.964v-27.496c-0.744-22.541-11.643-30.964-31.212-30.964h-23.78V874.341
			z M219.186,784.917h-17.092v89.424h17.092V784.917z M147.828,800.028h5.945c10.651,0,14.863,5.202,14.863,17.835v23.531
			c0,13.379-5.45,17.837-14.863,17.837h-5.945V800.028z M130.736,874.341h23.78c19.569,0,30.468-8.423,31.211-30.964v-27.496
			c-0.743-22.541-11.642-30.964-31.211-30.964h-23.78V874.341z"/>
	</g>
</g>
</svg>

